<?xml version="1.0" encoding="UTF-8"?>
<svg xmlns="http://www.w3.org/2000/svg" xmlns:svg="http://www.w3.org/2000/svg" version="1.1" viewBox="0 0 1400 1050">
	<title>The titlepage for the Standard Ebooks edition of The Gallic Wars, by Julius Caesar. Translated by William Alexander McDevitte</title>
	<g style="font-size:93.56725311px;font-family:'League Spartan';letter-spacing:5px;text-anchor:middle;fill:#000000">
		<path d="m 236.82017,61.789107 57.70285,0 0,7.766813 -24.21418,0 0,60.44408 -9.27449,0 0,-60.44408 -24.21418,0 0,-7.766813 z" style="font-size:93.56725311px;font-family:'League Spartan';letter-spacing:5px;text-anchor:middle;fill:#000000"/>
		<path d="m 308.4777,61.789107 9.2288,0 0,27.960527 33.53436,0 0,-27.960527 9.2288,0 0,68.210893 -9.2288,0 0,-32.483553 -33.53436,0 0,32.483553 -9.2288,0 0,-68.210893 z" style="font-size:93.56725311px;font-family:'League Spartan';letter-spacing:5px;text-anchor:middle;fill:#000000"/>
		<path d="m 383.83588,61.789107 43.12865,0 0,7.766813 -33.89985,0 0,20.193714 32.48355,0 0,7.766813 -32.48355,0 0,24.716743 34.72222,0 0,7.76681 -43.95102,0 0,-68.210893 z" style="font-size:93.56725311px;font-family:'League Spartan';letter-spacing:5px;text-anchor:middle;fill:#000000"/>
		<path d="m 529.34393,120.26864 0,-18.32054 -15.07675,0 0,-7.584066 24.21418,0 0,29.285456 q -5.3454,3.79203 -11.78728,5.75658 -6.44189,1.91886 -13.75183,1.91886 -15.9905,0 -25.03655,-9.32018 -9.00037,-9.36586 -9.00037,-26.041666 0,-16.721491 9.00037,-26.041667 9.04605,-9.365863 25.03655,-9.365863 6.67032,0 12.65534,1.644737 6.0307,1.644737 11.10197,4.842837 l 0,9.822734 q -5.11696,-4.340278 -10.87354,-6.533261 -5.75658,-2.192982 -12.10709,-2.192982 -12.51827,0 -18.8231,6.990131 -6.25914,6.990132 -6.25914,20.833334 0,13.797516 6.25914,20.787646 6.30483,6.99013 18.8231,6.99013 4.88852,0 8.72624,-0.82237 3.83772,-0.86805 6.89876,-2.64985 z" style="font-size:93.56725311px;font-family:'League Spartan';letter-spacing:5px;text-anchor:middle;fill:#000000"/>
		<path d="m 583.18347,70.880847 -12.51827,33.945543 25.08223,0 -12.56396,-33.945543 z m -5.20833,-9.09174 10.46235,0 L 614.43347,130 l -9.5943,0 -6.21345,-17.49817 -30.74744,0 -6.21345,17.49817 -9.73136,0 26.04167,-68.210893 z" style="font-size:93.56725311px;font-family:'League Spartan';letter-spacing:5px;text-anchor:middle;fill:#000000"/>
		<path d="m 629.3476,61.789107 9.2288,0 0,60.444083 33.21454,0 0,7.76681 -42.44334,0 0,-68.210893 z" style="font-size:93.56725311px;font-family:'League Spartan';letter-spacing:5px;text-anchor:middle;fill:#000000"/>
		<path d="m 686.43091,61.789107 9.2288,0 0,60.444083 33.21455,0 0,7.76681 -42.44335,0 0,-68.210893 z" style="font-size:93.56725311px;font-family:'League Spartan';letter-spacing:5px;text-anchor:middle;fill:#000000"/>
		<path d="m 743.51425,61.789107 9.2288,0 0,68.210893 -9.2288,0 0,-68.210893 z" style="font-size:93.56725311px;font-family:'League Spartan';letter-spacing:5px;text-anchor:middle;fill:#000000"/>
		<path d="m 827.18753,67.043128 0,9.731359 q -4.66009,-4.340277 -9.95979,-6.487573 -5.25402,-2.147295 -11.19335,-2.147295 -11.69591,0 -17.90936,7.17288 -6.21345,7.127193 -6.21345,20.650585 0,13.477706 6.21345,20.650586 6.21345,7.12719 17.90936,7.12719 5.93933,0 11.19335,-2.14729 5.2997,-2.1473 9.95979,-6.48758 l 0,9.63999 q -4.84283,3.28947 -10.2796,4.93421 -5.39109,1.64474 -11.42179,1.64474 -15.48794,0 -24.39693,-9.45724 -8.90899,-9.50292 -8.90899,-25.904606 0,-16.447369 8.90899,-25.904606 8.90899,-9.502924 24.39693,-9.502924 6.12208,0 11.51316,1.644737 5.43677,1.59905 10.18823,4.842837 z" style="font-size:93.56725311px;font-family:'League Spartan';letter-spacing:5px;text-anchor:middle;fill:#000000"/>
		<path d="m 875.2449,61.789107 9.32018,0 14.34576,57.657163 14.30007,-57.657163 10.37098,0 14.34576,57.657163 14.30007,-57.657163 9.36587,0 L 944.46091,130 932.85638,130 918.46493,70.789473 903.93642,130 892.33189,130 875.2449,61.789107 Z" style="font-size:93.56725311px;font-family:'League Spartan';letter-spacing:5px;text-anchor:middle;fill:#000000"/>
		<path d="m 996.47299,70.880847 -12.51827,33.945543 25.08228,0 -12.56401,-33.945543 z m -5.20833,-9.09174 10.46234,0 25.996,68.210893 -9.5943,0 -6.2135,-17.49817 -30.7474,0 -6.21345,17.49817 -9.73136,0 26.04167,-68.210893 z" style="font-size:93.56725311px;font-family:'League Spartan';letter-spacing:5px;text-anchor:middle;fill:#000000"/>
		<path d="m 1074.9836,98.019005 q 2.9696,1.005117 5.7566,4.294595 2.8326,3.28947 5.6652,9.04605 l 9.3658,18.64035 -9.9141,0 -8.7262,-17.49817 q -3.3809,-6.85307 -6.579,-9.09174 -3.1524,-2.23867 -8.6348,-2.23867 l -10.0512,0 0,28.82858 -9.2288,0 0,-68.210893 20.8333,0 q 11.6959,0 17.4525,4.888523 5.7566,4.888524 5.7566,14.756945 0,6.441886 -3.0154,10.69079 -2.9696,4.248903 -8.6805,5.89364 z m -23.1177,-28.645834 0,24.214182 11.6045,0 q 6.6703,0 10.0512,-3.061038 3.4265,-3.106725 3.4265,-9.09174 0,-5.985015 -3.4265,-9.000365 -3.3809,-3.061039 -10.0512,-3.061039 l -11.6045,0 z" style="font-size:93.56725311px;font-family:'League Spartan';letter-spacing:5px;text-anchor:middle;fill:#000000"/>
		<path d="m 1153.5855,64.027777 0,9.000365 q -5.254,-2.512792 -9.9141,-3.746345 -4.6601,-1.233552 -9.0003,-1.233552 -7.5384,0 -11.6503,2.923976 -4.0661,2.923977 -4.0661,8.315059 0,4.523026 2.6955,6.85307 2.7413,2.284357 10.3253,3.700658 l 5.5739,1.142178 q 10.3253,1.964547 15.2138,6.944445 4.9342,4.934209 4.9342,13.249269 0,9.91411 -6.6703,15.03107 -6.6247,5.11696 -19.4628,5.11696 -4.8428,0 -10.3252,-1.09649 -5.4368,-1.0965 -11.2848,-3.24379 l 0,-9.50293 q 5.6195,3.15242 11.0106,4.75147 5.3911,1.59905 10.5994,1.59905 7.9039,0 12.1985,-3.10673 4.2946,-3.10672 4.2946,-8.8633 0,-5.02559 -3.1067,-7.85819 -3.0611,-2.8326 -10.0969,-4.248904 l -5.6195,-1.096491 q -10.3253,-2.055921 -14.9397,-6.441886 -4.6144,-4.385965 -4.6144,-12.198465 0,-9.046053 6.3505,-14.254386 6.3962,-5.208334 17.5896,-5.208334 4.7971,0 9.777,0.868056 4.9799,0.868055 10.1882,2.604167 z" style="font-size:93.56725311px;font-family:'League Spartan';letter-spacing:5px;text-anchor:middle;fill:#000000"/>
	</g>
	<g style="font-size:70.17543793px;font-family:'League Spartan';letter-spacing:5px;text-anchor:middle;fill:#000000">
		<path d="m 409.75466,178.84183 6.9216,0 0,47.59457 q 0,9.25165 -3.52933,13.43202 -3.49506,4.18037 -11.2733,4.18037 l -2.63843,0 0,-5.82511 2.15872,0 q 4.59155,0 6.47615,-2.5699 1.88459,-2.5699 1.88459,-9.21738 l 0,-47.59457 z" style="font-size:70.17543793px;font-family:'League Spartan';letter-spacing:5px;text-anchor:middle;fill:#000000"/>
		<path d="m 434.66283,178.84183 6.95587,0 0,31.07867 q 0,8.22369 2.98108,11.85582 2.98109,3.59786 9.66283,3.59786 6.64748,0 9.62857,-3.59786 2.98108,-3.63213 2.98108,-11.85582 l 0,-31.07867 6.95587,0 0,31.93531 q 0,10.00548 -4.96848,15.11102 -4.93421,5.10554 -14.59704,5.10554 -9.69709,0 -14.66557,-5.10554 -4.93421,-5.10554 -4.93421,-15.11102 l 0,-31.93531 z" style="font-size:70.17543793px;font-family:'League Spartan';letter-spacing:5px;text-anchor:middle;fill:#000000"/>
		<path d="m 491.84896,178.84183 6.9216,0 0,45.33306 24.91091,0 0,5.82511 -31.83251,0 0,-51.15817 z" style="font-size:70.17543793px;font-family:'League Spartan';letter-spacing:5px;text-anchor:middle;fill:#000000"/>
		<path d="m 535.91146,178.84183 6.9216,0 0,51.15817 -6.9216,0 0,-51.15817 z" style="font-size:70.17543793px;font-family:'League Spartan';letter-spacing:5px;text-anchor:middle;fill:#000000"/>
		<path d="m 560.81963,178.84183 6.95587,0 0,31.07867 q 0,8.22369 2.98108,11.85582 2.98109,3.59786 9.66283,3.59786 6.64748,0 9.62857,-3.59786 2.98108,-3.63213 2.98108,-11.85582 l 0,-31.07867 6.95587,0 0,31.93531 q 0,10.00548 -4.96848,15.11102 -4.93421,5.10554 -14.59704,5.10554 -9.69709,0 -14.66557,-5.10554 -4.93421,-5.10554 -4.93421,-15.11102 l 0,-31.93531 z" style="font-size:70.17543793px;font-family:'League Spartan';letter-spacing:5px;text-anchor:middle;fill:#000000"/>
		<path d="m 648.67325,180.52083 0,6.75028 q -3.94052,-1.8846 -7.43558,-2.80976 -3.49507,-0.92517 -6.75028,-0.92517 -5.65378,0 -8.73766,2.19299 -3.04962,2.19298 -3.04962,6.23629 0,3.39227 2.02166,5.1398 2.05592,1.71327 7.74397,2.7755 l 4.18037,0.85663 q 7.74397,1.47341 11.41036,5.20833 3.70066,3.70066 3.70066,9.93696 0,7.43558 -5.00274,11.2733 -4.96848,3.83772 -14.59704,3.83772 -3.63213,0 -7.74397,-0.82237 -4.07757,-0.82237 -8.46354,-2.43284 l 0,-7.1272 q 4.21464,2.36431 8.25795,3.5636 4.04331,1.19929 7.94956,1.19929 5.92791,0 9.14885,-2.33005 3.22094,-2.33004 3.22094,-6.64747 0,-3.76919 -2.33004,-5.89364 -2.29578,-2.12446 -7.57264,-3.18668 l -4.21464,-0.82237 q -7.74397,-1.54194 -11.20477,-4.83141 -3.4608,-3.28948 -3.4608,-9.14885 0,-6.78454 4.76288,-10.69079 4.79715,-3.90625 13.19216,-3.90625 3.59786,0 7.33279,0.65104 3.73492,0.65104 7.64117,1.95312 z" style="font-size:70.17543793px;font-family:'League Spartan';letter-spacing:5px;text-anchor:middle;fill:#000000"/>
		<path d="m 733.20038,182.78235 0,7.29852 q -3.49507,-3.25521 -7.46985,-4.86568 -3.94051,-1.61047 -8.39501,-1.61047 -8.77193,0 -13.43202,5.37966 -4.66008,5.34539 -4.66008,15.48793 0,10.10828 4.66008,15.48794 4.66009,5.3454 13.43202,5.3454 4.4545,0 8.39501,-1.61047 3.97478,-1.61048 7.46985,-4.86568 l 0,7.22998 q -3.63213,2.46711 -7.7097,3.70066 -4.04332,1.23356 -8.56634,1.23356 -11.61596,0 -18.2977,-7.09293 -6.68174,-7.1272 -6.68174,-19.42846 0,-12.33552 6.68174,-19.42845 6.68174,-7.12719 18.2977,-7.12719 4.59155,0 8.63487,1.23355 4.07757,1.19929 7.64117,3.63213 z" style="font-size:70.17543793px;font-family:'League Spartan';letter-spacing:5px;text-anchor:middle;fill:#000000"/>
		<path d="m 766.05812,185.66064 -9.38871,25.45915 18.81168,0 -9.42297,-25.45915 z m -3.90625,-6.81881 7.84677,0 19.49698,51.15817 -7.19572,0 -4.66009,-13.12363 -23.06058,0 -4.66009,13.12363 -7.29852,0 19.53125,-51.15817 z" style="font-size:70.17543793px;font-family:'League Spartan';letter-spacing:5px;text-anchor:middle;fill:#000000"/>
		<path d="m 801.93121,178.84183 32.34649,0 0,5.82511 -25.42489,0 0,15.14529 24.36266,0 0,5.82511 -24.36266,0 0,18.53755 26.04166,0 0,5.82511 -32.96326,0 0,-51.15817 z" style="font-size:70.17543793px;font-family:'League Spartan';letter-spacing:5px;text-anchor:middle;fill:#000000"/>
		<path d="m 882.00656,180.52083 0,6.75028 q -3.94051,-1.8846 -7.43558,-2.80976 -3.49506,-0.92517 -6.75027,-0.92517 -5.65379,0 -8.73767,2.19299 -3.04961,2.19298 -3.04961,6.23629 0,3.39227 2.02165,5.1398 2.05592,1.71327 7.74397,2.7755 l 4.18037,0.85663 q 7.74397,1.47341 11.41037,5.20833 3.70065,3.70066 3.70065,9.93696 0,7.43558 -5.00274,11.2733 -4.96847,3.83772 -14.59704,3.83772 -3.63212,0 -7.74397,-0.82237 -4.07757,-0.82237 -8.46354,-2.43284 l 0,-7.1272 q 4.21464,2.36431 8.25795,3.5636 4.04331,1.19929 7.94956,1.19929 5.92791,0 9.14885,-2.33005 3.22095,-2.33004 3.22095,-6.64747 0,-3.76919 -2.33005,-5.89364 -2.29578,-2.12446 -7.57264,-3.18668 l -4.21464,-0.82237 q -7.74397,-1.54194 -11.20477,-4.83141 -3.4608,-3.28948 -3.4608,-9.14885 0,-6.78454 4.76288,-10.69079 4.79715,-3.90625 13.19216,-3.90625 3.59787,0 7.33279,0.65104 3.73492,0.65104 7.64117,1.95312 z" style="font-size:70.17543793px;font-family:'League Spartan';letter-spacing:5px;text-anchor:middle;fill:#000000"/>
		<path d="m 919.35307,185.66064 -9.3887,25.45915 18.81167,0 -9.42297,-25.45915 z m -3.90625,-6.81881 7.84677,0 19.49698,51.15817 -7.19572,0 -4.66009,-13.12363 -23.06058,0 -4.66009,13.12363 -7.29852,0 19.53125,-51.15817 z" style="font-size:70.17543793px;font-family:'League Spartan';letter-spacing:5px;text-anchor:middle;fill:#000000"/>
		<path d="m 979.48603,206.01425 q 2.22725,0.75384 4.31743,3.22095 2.12445,2.4671 4.2489,6.78454 l 7.0244,13.98026 -7.43558,0 -6.54468,-13.12363 q -2.53564,-5.1398 -4.93421,-6.8188 -2.36431,-1.67901 -6.47615,-1.67901 l -7.53838,0 0,21.62144 -6.9216,0 0,-51.15817 15.625,0 q 8.77193,0 13.08936,3.66639 4.31744,3.6664 4.31744,11.06771 0,4.83142 -2.26152,8.01809 -2.22724,3.18668 -6.51041,4.42023 z m -17.33827,-21.48437 0,18.16064 8.7034,0 q 5.00274,0 7.53838,-2.29578 2.5699,-2.33005 2.5699,-6.81881 0,-4.48876 -2.5699,-6.75027 -2.53564,-2.29578 -7.53838,-2.29578 l -8.7034,0 z" style="font-size:70.17543793px;font-family:'League Spartan';letter-spacing:5px;text-anchor:middle;fill:#000000"/>
	</g>
	<g style="font-size:70.17543793px;font-family:'League Spartan';letter-spacing:5px;text-anchor:middle;fill:#000000">
		<path d="m 428.97752,265.66064 -9.3887,25.45915 18.81168,0 -9.42298,-25.45915 z m -3.90625,-6.81881 7.84677,0 19.49698,51.15817 -7.19572,0 -4.66009,-13.12363 -23.06058,0 -4.66009,13.12363 -7.29852,0 19.53125,-51.15817 z" style="font-size:70.17543793px;font-family:'League Spartan';letter-spacing:5px;text-anchor:middle;fill:#000000"/>
		<path d="m 464.0625,258.84183 6.95587,0 0,31.07867 q 0,8.22369 2.98108,11.85582 2.98109,3.59786 9.66283,3.59786 6.64748,0 9.62856,-3.59786 2.98109,-3.63213 2.98109,-11.85582 l 0,-31.07867 6.95587,0 0,31.93531 q 0,10.00548 -4.96848,15.11102 -4.93421,5.10554 -14.59704,5.10554 -9.69709,0 -14.66557,-5.10554 -4.93421,-5.10554 -4.93421,-15.11102 l 0,-31.93531 z" style="font-size:70.17543793px;font-family:'League Spartan';letter-spacing:5px;text-anchor:middle;fill:#000000"/>
		<path d="m 521.24863,258.84183 6.9216,0 0,45.33306 24.91091,0 0,5.82511 -31.83251,0 0,-51.15817 z" style="font-size:70.17543793px;font-family:'League Spartan';letter-spacing:5px;text-anchor:middle;fill:#000000"/>
		<path d="m 561.09649,258.84183 6.95587,0 0,31.07867 q 0,8.22369 2.98108,11.85582 2.98109,3.59786 9.66283,3.59786 6.64748,0 9.62856,-3.59786 2.98109,-3.63213 2.98109,-11.85582 l 0,-31.07867 6.95586,0 0,31.93531 q 0,10.00548 -4.96847,15.11102 -4.93421,5.10554 -14.59704,5.10554 -9.69709,0 -14.66557,-5.10554 -4.93421,-5.10554 -4.93421,-15.11102 l 0,-31.93531 z" style="font-size:70.17543793px;font-family:'League Spartan';letter-spacing:5px;text-anchor:middle;fill:#000000"/>
		<path d="m 648.95011,260.52083 0,6.75028 q -3.94052,-1.8846 -7.43558,-2.80976 -3.49507,-0.92517 -6.75028,-0.92517 -5.65378,0 -8.73766,2.19299 -3.04962,2.19298 -3.04962,6.23629 0,3.39227 2.02166,5.1398 2.05592,1.71327 7.74397,2.7755 l 4.18037,0.85663 q 7.74397,1.47341 11.41036,5.20833 3.70066,3.70066 3.70066,9.93696 0,7.43558 -5.00274,11.2733 -4.96848,3.83772 -14.59704,3.83772 -3.63213,0 -7.74397,-0.82237 -4.07758,-0.82237 -8.46354,-2.43284 l 0,-7.1272 q 4.21463,2.36431 8.25795,3.5636 4.04331,1.19929 7.94956,1.19929 5.9279,0 9.14885,-2.33005 3.22094,-2.33004 3.22094,-6.64747 0,-3.76919 -2.33004,-5.89364 -2.29578,-2.12446 -7.57265,-3.18668 l -4.21464,-0.82237 q -7.74396,-1.54194 -11.20477,-4.83141 -3.4608,-3.28948 -3.4608,-9.14885 0,-6.78454 4.76289,-10.69079 4.79715,-3.90625 13.19216,-3.90625 3.59786,0 7.33278,0.65104 3.73493,0.65104 7.64118,1.95312 z" style="font-size:70.17543793px;font-family:'League Spartan';letter-spacing:5px;text-anchor:middle;fill:#000000"/>
		<path d="m 695.16857,258.84183 6.9216,0 0,20.9704 25.15077,0 0,-20.9704 6.9216,0 0,51.15817 -6.9216,0 0,-24.36266 -25.15077,0 0,24.36266 -6.9216,0 0,-51.15817 z" style="font-size:70.17543793px;font-family:'League Spartan';letter-spacing:5px;text-anchor:middle;fill:#000000"/>
		<path d="m 752.93722,258.84183 6.9216,0 0,51.15817 -6.9216,0 0,-51.15817 z" style="font-size:70.17543793px;font-family:'League Spartan';letter-spacing:5px;text-anchor:middle;fill:#000000"/>
		<path d="m 802.89338,286.01425 q 2.22724,0.75384 4.31743,3.22095 2.12445,2.4671 4.2489,6.78454 l 7.0244,13.98026 -7.43558,0 -6.54468,-13.12363 q -2.53564,-5.1398 -4.93421,-6.8188 -2.36431,-1.67901 -6.47615,-1.67901 l -7.53838,0 0,21.62144 -6.9216,0 0,-51.15817 15.625,0 q 8.77193,0 13.08936,3.66639 4.31744,3.6664 4.31744,11.06771 0,4.83142 -2.26152,8.01809 -2.22724,3.18668 -6.51041,4.42023 z m -17.33827,-21.48437 0,18.16064 8.7034,0 q 5.00274,0 7.53838,-2.29578 2.5699,-2.33005 2.5699,-6.81881 0,-4.48876 -2.5699,-6.75027 -2.53564,-2.29578 -7.53838,-2.29578 l -8.7034,0 z" style="font-size:70.17543793px;font-family:'League Spartan';letter-spacing:5px;text-anchor:middle;fill:#000000"/>
		<path d="m 820.26315,258.84183 43.27713,0 0,5.82511 -18.16063,0 0,45.33306 -6.95587,0 0,-45.33306 -18.16063,0 0,-5.82511 z" style="font-size:70.17543793px;font-family:'League Spartan';letter-spacing:5px;text-anchor:middle;fill:#000000"/>
		<path d="m 875.25631,258.84183 6.9216,0 0,51.15817 -6.9216,0 0,-51.15817 z" style="font-size:70.17543793px;font-family:'League Spartan';letter-spacing:5px;text-anchor:middle;fill:#000000"/>
		<path d="m 900.16447,258.84183 6.95586,0 0,31.07867 q 0,8.22369 2.98109,11.85582 2.98108,3.59786 9.66283,3.59786 6.64748,0 9.62856,-3.59786 2.98109,-3.63213 2.98109,-11.85582 l 0,-31.07867 6.95586,0 0,31.93531 q 0,10.00548 -4.96847,15.11102 -4.93421,5.10554 -14.59704,5.10554 -9.6971,0 -14.66557,-5.10554 -4.93421,-5.10554 -4.93421,-15.11102 l 0,-31.93531 z" style="font-size:70.17543793px;font-family:'League Spartan';letter-spacing:5px;text-anchor:middle;fill:#000000"/>
		<path d="m 988.0181,260.52083 0,6.75028 q -3.94052,-1.8846 -7.43558,-2.80976 -3.49507,-0.92517 -6.75028,-0.92517 -5.65378,0 -8.73766,2.19299 -3.04962,2.19298 -3.04962,6.23629 0,3.39227 2.02166,5.1398 2.05592,1.71327 7.74397,2.7755 l 4.18037,0.85663 q 7.74397,1.47341 11.41036,5.20833 3.70066,3.70066 3.70066,9.93696 0,7.43558 -5.00274,11.2733 -4.96848,3.83772 -14.59704,3.83772 -3.63213,0 -7.74397,-0.82237 -4.07758,-0.82237 -8.46354,-2.43284 l 0,-7.1272 q 4.21464,2.36431 8.25795,3.5636 4.04331,1.19929 7.94956,1.19929 5.92791,0 9.14885,-2.33005 3.22094,-2.33004 3.22094,-6.64747 0,-3.76919 -2.33004,-5.89364 -2.29578,-2.12446 -7.57264,-3.18668 l -4.21464,-0.82237 q -7.74397,-1.54194 -11.20477,-4.83141 -3.4608,-3.28948 -3.4608,-9.14885 0,-6.78454 4.76288,-10.69079 4.79715,-3.90625 13.19216,-3.90625 3.59786,0 7.33279,0.65104 3.73492,0.65104 7.64117,1.95312 z" style="font-size:70.17543793px;font-family:'League Spartan';letter-spacing:5px;text-anchor:middle;fill:#000000"/>
	</g>
	<g style="font-style:italic;font-size:42.5079689px;font-family:'OFL Sorts Mill Goudy';text-anchor:middle;fill:#000000">
		<path d="m 576.58575,476.75345 -0.58116,2.96809 -7.6174,0 -2.46994,12.61955 q -0.12454,0.7057 -0.18681,1.18309 -0.0623,0.47738 -0.0623,0.74721 0,1.32837 0.78872,1.93029 0.80948,0.60192 2.57372,0.60192 l 3.86059,0 -0.64343,3.1964 -3.65303,0 q -3.40396,0 -5.08518,-1.32837 -1.66047,-1.32838 -1.66047,-4.02664 0,-0.47738 0.0623,-1.03779 0.0623,-0.58116 0.1868,-1.26611 l 2.46995,-12.61955 -3.23792,0 0.60192,-2.96809 3.17565,0 1.28686,-6.60035 3.81908,0 -1.26611,6.60035 7.63815,0 z" style="font-style:italic;font-size:42.5079689px;font-family:'OFL Sorts Mill Goudy';text-anchor:middle;fill:#000000"/>
		<path d="m 594.24897,480.28195 q -0.58116,-0.31134 -1.32837,-0.47739 -0.74721,-0.16604 -1.5982,-0.16604 -3.05111,0 -5.33425,2.32465 -2.28315,2.3039 -3.03036,6.18524 L 580.61238,500 l -3.81907,0 4.54553,-23.24655 3.81907,0 -0.72645,3.61152 q 1.51518,-2.01332 3.61152,-3.09262 2.11709,-1.0793 4.50401,-1.0793 0.62268,0 1.2246,0.083 0.60192,0.0623 1.20384,0.22831 l -0.72646,3.77757 z" style="font-style:italic;font-size:42.5079689px;font-family:'OFL Sorts Mill Goudy';text-anchor:middle;fill:#000000"/>
		<path d="M 615.64825,486.73702 613.05377,500 l -3.81908,0 0.7057,-3.52849 q -1.68122,2.07558 -3.83983,3.11337 -2.13785,1.01704 -4.77384,1.01704 -2.96809,0 -4.87763,-1.80576 -1.88878,-1.82651 -1.88878,-4.67006 0,-4.06815 3.23791,-6.43432 3.25867,-2.36616 8.96653,-2.36616 l 5.31349,0 0.20756,-1.01704 q 0.0415,-0.16604 0.0623,-0.35285 0.0208,-0.20756 0.0208,-0.62267 0,-1.84727 -1.51518,-2.86431 -1.49442,-1.03779 -4.21344,-1.03779 -1.86802,0 -3.83983,0.47738 -1.95105,0.47739 -4.02663,1.43216 l 0.66418,-3.5285 q 2.15861,-0.80948 4.21344,-1.20384 2.07559,-0.41511 4.00588,-0.41511 4.10966,0 6.24751,1.785 2.15861,1.785 2.15861,5.18896 0,0.68494 -0.10378,1.61896 -0.10378,0.91325 -0.31134,1.95105 z m -4.13041,1.57744 -3.81908,0 q -4.69082,0 -6.95321,1.26611 -2.24163,1.24535 -2.24163,3.88134 0,1.82651 1.14157,2.86431 1.16233,1.03779 3.1964,1.03779 3.11338,0 5.43803,-2.22088 2.32466,-2.24163 3.07187,-5.97768 l 0.16605,-0.85099 z" style="font-style:italic;font-size:42.5079689px;font-family:'OFL Sorts Mill Goudy';text-anchor:middle;fill:#000000"/>
		<path d="M 642.56858,485.96905 639.84956,500 l -3.83983,0 2.71902,-13.88566 q 0.1868,-0.97552 0.29058,-1.72273 0.10378,-0.74722 0.10378,-1.18309 0,-1.74349 -1.10006,-2.71901 -1.10006,-0.97553 -3.07187,-0.97553 -3.07186,0 -5.29274,2.05483 -2.22087,2.03407 -2.90581,5.54181 L 624.19966,500 l -3.81908,0 4.50402,-23.24655 3.81907,0 -0.76796,3.65303 q 1.5982,-2.01331 3.83983,-3.11337 2.24163,-1.10006 4.71158,-1.10006 3.07186,0 4.75308,1.66046 1.70198,1.66047 1.70198,4.67007 0,0.74721 -0.10378,1.5982 -0.083,0.85099 -0.26982,1.84727 z" style="font-style:italic;font-size:42.5079689px;font-family:'OFL Sorts Mill Goudy';text-anchor:middle;fill:#000000"/>
		<path d="m 667.12274,477.4384 -0.72645,3.61151 q -1.51518,-0.83023 -3.1964,-1.24535 -1.68123,-0.41511 -3.46623,-0.41511 -3.0096,0 -4.75309,1.03779 -1.72273,1.01704 -1.72273,2.78128 0,2.05483 4.02663,3.15489 0.31134,0.083 0.45663,0.12454 l 1.2246,0.3736 q 3.81907,1.05855 5.08518,2.22088 1.28686,1.16232 1.28686,3.17564 0,3.69454 -2.94733,6.01919 -2.92657,2.32466 -7.67966,2.32466 -1.84727,0 -3.88135,-0.35285 -2.03407,-0.35285 -4.48326,-1.10006 l 0.74721,-3.94361 q 2.09634,1.0793 4.13042,1.63971 2.03407,0.56041 3.90209,0.56041 2.80204,0 4.54553,-1.20384 1.76425,-1.20384 1.76425,-3.05111 0,-1.99256 -4.6078,-3.21715 l -0.39436,-0.10378 -1.30762,-0.3321 q -2.90581,-0.76796 -4.25494,-2.01331 -1.34913,-1.26611 -1.34913,-3.21716 0,-3.7153 2.78128,-5.89466 2.80204,-2.17936 7.59664,-2.17936 1.88878,0 3.67378,0.31133 1.80576,0.31134 3.54925,0.93402 z" style="font-style:italic;font-size:42.5079689px;font-family:'OFL Sorts Mill Goudy';text-anchor:middle;fill:#000000"/>
		<path d="m 675.81944,467.70391 3.81908,0 L 673.3495,500 l -3.81908,0 6.28902,-32.29609 z" style="font-style:italic;font-size:42.5079689px;font-family:'OFL Sorts Mill Goudy';text-anchor:middle;fill:#000000"/>
		<path d="M 702.65674,486.73702 700.06226,500 l -3.81907,0 0.7057,-3.52849 q -1.68123,2.07558 -3.83983,3.11337 -2.13786,1.01704 -4.77385,1.01704 -2.96808,0 -4.87762,-1.80576 -1.88878,-1.82651 -1.88878,-4.67006 0,-4.06815 3.23791,-6.43432 3.25867,-2.36616 8.96652,-2.36616 l 5.3135,0 0.20756,-1.01704 q 0.0415,-0.16604 0.0623,-0.35285 0.0208,-0.20756 0.0208,-0.62267 0,-1.84727 -1.51518,-2.86431 -1.49442,-1.03779 -4.21343,-1.03779 -1.86803,0 -3.83983,0.47738 -1.95105,0.47739 -4.02664,1.43216 l 0.66419,-3.5285 q 2.15861,-0.80948 4.21344,-1.20384 2.07558,-0.41511 4.00587,-0.41511 4.10966,0 6.24751,1.785 2.15861,1.785 2.15861,5.18896 0,0.68494 -0.10378,1.61896 -0.10378,0.91325 -0.31134,1.95105 z m -4.13041,1.57744 -3.81907,0 q -4.69082,0 -6.95321,1.26611 -2.24163,1.24535 -2.24163,3.88134 0,1.82651 1.14157,2.86431 1.16233,1.03779 3.1964,1.03779 3.11338,0 5.43803,-2.22088 2.32465,-2.24163 3.07186,-5.97768 l 0.16605,-0.85099 z" style="font-style:italic;font-size:42.5079689px;font-family:'OFL Sorts Mill Goudy';text-anchor:middle;fill:#000000"/>
		<path d="m 723.86921,476.75345 -0.58116,2.96809 -7.6174,0 -2.46994,12.61955 q -0.12454,0.7057 -0.1868,1.18309 -0.0623,0.47738 -0.0623,0.74721 0,1.32837 0.78872,1.93029 0.80948,0.60192 2.57373,0.60192 l 3.86058,0 -0.64343,3.1964 -3.65303,0 q -3.40396,0 -5.08518,-1.32837 -1.66047,-1.32838 -1.66047,-4.02664 0,-0.47738 0.0623,-1.03779 0.0623,-0.58116 0.1868,-1.26611 l 2.46995,-12.61955 -3.23791,0 0.60192,-2.96809 3.17564,0 1.28686,-6.60035 3.81908,0 -1.26611,6.60035 7.63815,0 z" style="font-style:italic;font-size:42.5079689px;font-family:'OFL Sorts Mill Goudy';text-anchor:middle;fill:#000000"/>
		<path d="m 743.02686,486.30114 q 0.0623,-0.33209 0.083,-0.68494 0.0415,-0.35285 0.0415,-0.7057 0,-2.53221 -1.49442,-4.00588 -1.47366,-1.47366 -4.02663,-1.47366 -2.84355,0 -5.02292,1.80576 -2.17936,1.785 -3.30018,5.08518 l 13.71962,-0.0208 z m 3.32093,2.98884 -17.767,0 q -0.12454,0.78873 -0.16605,1.24536 -0.0415,0.45662 -0.0415,0.78872 0,2.88506 1.76425,4.4625 1.785,1.57745 5.02291,1.57745 2.4907,0 4.71158,-0.56041 2.22087,-0.56041 4.13041,-1.63971 l -0.72645,3.77756 q -2.05483,0.83024 -4.25495,1.24535 -2.17936,0.41512 -4.44175,0.41512 -4.83611,0 -7.45135,-2.3039 -2.59448,-2.32465 -2.59448,-6.5796 0,-3.63227 1.28686,-6.74565 1.30762,-3.13413 3.81908,-5.58332 1.61895,-1.53594 3.83983,-2.36617 2.24163,-0.83023 4.75309,-0.83023 3.94361,0 6.26826,2.36616 2.34541,2.36617 2.34541,6.35129 0,0.95477 -0.12453,2.05483 -0.12454,1.0793 -0.37361,2.32465 z" style="font-style:italic;font-size:42.5079689px;font-family:'OFL Sorts Mill Goudy';text-anchor:middle;fill:#000000"/>
		<path d="m 766.50173,496.51302 q -1.53594,2.01332 -3.63228,3.05111 -2.09634,1.03779 -4.6493,1.03779 -3.48699,0 -5.52106,-2.36617 -2.01332,-2.38692 -2.01332,-6.51733 0,-3.44547 1.2246,-6.55885 1.22459,-3.13413 3.54925,-5.60408 1.53593,-1.63971 3.46622,-2.4907 1.9303,-0.87174 4.04739,-0.87174 2.24163,0 3.94361,1.0793 1.72274,1.0793 2.65675,3.09262 l 2.4907,-12.66106 3.83983,0 L 769.6151,500 l -3.83983,0 0.72646,-3.48698 z m -11.85159,-5.47954 q 0,3.00959 1.34913,4.69082 1.36989,1.68122 3.77756,1.68122 1.78501,0 3.30018,-0.85099 1.53594,-0.87175 2.69826,-2.55297 1.2246,-1.74349 1.9303,-4.02663 0.70569,-2.28315 0.70569,-4.50402 0,-2.88506 -1.36988,-4.50402 -1.34913,-1.61895 -3.73605,-1.61895 -1.80576,0 -3.36245,0.85098 -1.55669,0.85099 -2.65675,2.44919 -1.20384,1.72274 -1.93029,4.00588 -0.7057,2.28315 -0.7057,4.37949 z" style="font-style:italic;font-size:42.5079689px;font-family:'OFL Sorts Mill Goudy';text-anchor:middle;fill:#000000"/>
		<path d="m 810.29655,485.803 q 0,-3.00959 -1.39064,-4.71157 -1.36989,-1.70198 -3.79832,-1.70198 -1.76425,0 -3.32094,0.87174 -1.53593,0.85099 -2.6775,2.4907 -1.20384,1.72274 -1.90954,4.00588 -0.68494,2.26239 -0.68494,4.52478 0,2.8643 1.34913,4.50401 1.36988,1.61896 3.7568,1.61896 1.80576,0 3.34169,-0.83023 1.53594,-0.85099 2.69826,-2.49071 1.18309,-1.70197 1.90954,-3.96436 0.72646,-2.26239 0.72646,-4.31722 z m -11.87235,-5.52105 q 1.4114,-1.90954 3.5285,-2.98884 2.13785,-1.10006 4.4625,-1.10006 3.57001,0 5.66635,2.40767 2.1171,2.40768 2.1171,6.51734 0,3.36245 -1.24536,6.51733 -1.22459,3.15489 -3.50773,5.60408 -1.49442,1.61896 -3.44547,2.4907 -1.95105,0.87175 -4.0889,0.87175 -2.26239,0 -3.92286,-1.03779 -1.66047,-1.03779 -2.69826,-3.09262 L 794.60513,500 l -3.81908,0 6.28902,-32.29609 3.81908,0 -2.46995,12.57804 z" style="font-style:italic;font-size:42.5079689px;font-family:'OFL Sorts Mill Goudy';text-anchor:middle;fill:#000000"/>
		<path d="m 826.77668,502.15861 q -2.65675,4.4625 -4.33797,5.56256 -1.66047,1.12082 -4.25495,1.12082 l -3.0096,0 0.64343,-3.1964 2.20012,0 q 1.5982,0 2.71902,-0.87175 1.12081,-0.87174 2.51146,-3.40395 l 1.18308,-2.22088 -5.14745,-22.39556 4.04739,0 3.86059,17.80852 10.6685,-17.80852 4.00588,0 -15.0895,25.40516 z" style="font-style:italic;font-size:42.5079689px;font-family:'OFL Sorts Mill Goudy';text-anchor:middle;fill:#000000"/>
	</g>
	<g style="font-size:46.78362656px;font-family:'League Spartan';letter-spacing:5px;text-anchor:middle;fill:#000000">
		<path d="m 244.87755,525.89455 4.66009,0 7.17288,28.82859 7.15004,-28.82859 5.18549,0 7.17288,28.82859 7.15003,-28.82859 4.68293,0 -8.56633,34.10545 -5.80227,0 -7.19572,-29.60526 -7.26426,29.60526 -5.80226,0 -8.5435,-34.10545 z" style="font-size:46.78362656px;font-family:'League Spartan';letter-spacing:5px;text-anchor:middle;fill:#000000"/>
		<path d="m 299.15113,525.89455 4.6144,0 0,34.10545 -4.6144,0 0,-34.10545 z" style="font-size:46.78362656px;font-family:'League Spartan';letter-spacing:5px;text-anchor:middle;fill:#000000"/>
		<path d="m 317.94864,525.89455 4.6144,0 0,30.22204 16.60728,0 0,3.88341 -21.22168,0 0,-34.10545 z" style="font-size:46.78362656px;font-family:'League Spartan';letter-spacing:5px;text-anchor:middle;fill:#000000"/>
		<path d="m 348.99031,525.89455 4.6144,0 0,30.22204 16.60727,0 0,3.88341 -21.22167,0 0,-34.10545 z" style="font-size:46.78362656px;font-family:'League Spartan';letter-spacing:5px;text-anchor:middle;fill:#000000"/>
		<path d="m 380.03197,525.89455 4.6144,0 0,34.10545 -4.6144,0 0,-34.10545 z" style="font-size:46.78362656px;font-family:'League Spartan';letter-spacing:5px;text-anchor:middle;fill:#000000"/>
		<path d="m 410.22843,530.44042 -6.25914,16.97277 12.54112,0 -6.28198,-16.97277 z m -2.60417,-4.54587 5.23118,0 12.99799,34.10545 -4.79715,0 -3.10673,-8.74909 -15.37372,0 -3.10672,8.74909 -4.86568,0 13.02083,-34.10545 z" style="font-size:46.78362656px;font-family:'League Spartan';letter-spacing:5px;text-anchor:middle;fill:#000000"/>
		<path d="m 435.81049,525.89455 6.87591,0 8.7034,23.20907 8.74909,-23.20907 6.87591,0 0,34.10545 -4.50018,0 0,-29.94792 -8.79477,23.39182 -4.63725,0 -8.79477,-23.39182 0,29.94792 -4.47734,0 0,-34.10545 z" style="font-size:46.78362656px;font-family:'League Spartan';letter-spacing:5px;text-anchor:middle;fill:#000000"/>
		<path d="m 512.49086,530.44042 -6.25913,16.97277 12.54112,0 -6.28199,-16.97277 z m -2.60416,-4.54587 5.23117,0 12.99799,34.10545 -4.79714,0 -3.10673,-8.74909 -15.37372,0 -3.10673,8.74909 -4.86568,0 13.02084,-34.10545 z" style="font-size:46.78362656px;font-family:'League Spartan';letter-spacing:5px;text-anchor:middle;fill:#000000"/>
		<path d="m 538.07291,525.89455 4.6144,0 0,30.22204 16.60728,0 0,3.88341 -21.22168,0 0,-34.10545 z" style="font-size:46.78362656px;font-family:'League Spartan';letter-spacing:5px;text-anchor:middle;fill:#000000"/>
		<path d="m 569.1146,525.89455 21.56433,0 0,3.88341 -16.94993,0 0,10.09686 16.24178,0 0,3.8834 -16.24178,0 0,12.35837 17.36111,0 0,3.88341 -21.97551,0 0,-34.10545 z" style="font-size:46.78362656px;font-family:'League Spartan';letter-spacing:5px;text-anchor:middle;fill:#000000"/>
		<path d="m 602.07512,525.89455 4.95705,0 8.47496,12.67818 8.52066,-12.67818 4.95705,0 -10.96491,16.37884 11.6959,17.72661 -4.95705,0 -9.5943,-14.50567 -9.66283,14.50567 -4.9799,0 12.17563,-18.20632 -10.62226,-15.89913 z" style="font-size:46.78362656px;font-family:'League Spartan';letter-spacing:5px;text-anchor:middle;fill:#000000"/>
		<path d="m 652.19115,530.44042 -6.25914,16.97277 12.54112,0 -6.28198,-16.97277 z m -2.60417,-4.54587 5.23118,0 12.99799,34.10545 -4.79715,0 -3.10672,-8.74909 -15.37372,0 -3.10673,8.74909 -4.86568,0 13.02083,-34.10545 z" style="font-size:46.78362656px;font-family:'League Spartan';letter-spacing:5px;text-anchor:middle;fill:#000000"/>
		<path d="m 677.7732,525.89455 6.21345,0 15.12244,28.53162 0,-28.53162 4.47734,0 0,34.10545 -6.21345,0 -15.12244,-28.53162 0,28.53162 -4.47734,0 0,-34.10545 z" style="font-size:46.78362656px;font-family:'League Spartan';letter-spacing:5px;text-anchor:middle;fill:#000000"/>
		<path d="m 722.38397,529.68659 0,26.52138 5.57383,0 q 7.05866,0 10.32529,-3.1981 3.28947,-3.1981 3.28947,-10.09686 0,-6.85307 -3.28947,-10.02832 -3.26663,-3.1981 -10.32529,-3.1981 l -5.57383,0 z m -4.6144,-3.79204 9.48008,0 q 9.91411,0 14.55135,4.13469 4.63724,4.11184 4.63724,12.88377 0,8.81762 -4.66008,12.9523 Q 737.11807,560 727.24965,560 l -9.48008,0 0,-34.10545 z" style="font-size:46.78362656px;font-family:'League Spartan';letter-spacing:5px;text-anchor:middle;fill:#000000"/>
		<path d="m 758.77103,525.89455 21.56433,0 0,3.88341 -16.94993,0 0,10.09686 16.24178,0 0,3.8834 -16.24178,0 0,12.35837 17.36111,0 0,3.88341 -21.97551,0 0,-34.10545 z" style="font-size:46.78362656px;font-family:'League Spartan';letter-spacing:5px;text-anchor:middle;fill:#000000"/>
		<path d="m 809.5495,544.0095 q 1.48483,0.50256 2.87829,2.1473 1.4163,1.64473 2.8326,4.52302 l 4.68294,9.32018 -4.95706,0 -4.36312,-8.74909 q -1.69042,-3.42653 -3.28947,-4.54587 -1.57621,-1.11933 -4.31744,-1.11933 l -5.02558,0 0,14.41429 -4.6144,0 0,-34.10545 10.41666,0 q 5.84796,0 8.72625,2.44427 2.87829,2.44426 2.87829,7.37847 0,3.22094 -1.50768,5.34539 -1.48483,2.12445 -4.34028,2.94682 z m -11.55884,-14.32291 0,12.10709 5.80226,0 q 3.33516,0 5.02559,-1.53052 1.71327,-1.55337 1.71327,-4.54587 0,-2.99251 -1.71327,-4.50019 -1.69043,-1.53051 -5.02559,-1.53051 l -5.80226,0 z" style="font-size:46.78362656px;font-family:'League Spartan';letter-spacing:5px;text-anchor:middle;fill:#000000"/>
		<path d="m 850.79954,525.89455 6.87591,0 8.7034,23.20907 8.74908,-23.20907 6.87592,0 0,34.10545 -4.50018,0 0,-29.94792 -8.79478,23.39182 -4.63724,0 -8.79478,-23.39182 0,29.94792 -4.47733,0 0,-34.10545 z" style="font-size:46.78362656px;font-family:'League Spartan';letter-spacing:5px;text-anchor:middle;fill:#000000"/>
		<path d="m 921.72609,528.52156 0,4.86568 q -2.33004,-2.17014 -4.97989,-3.24378 -2.62701,-1.07365 -5.59668,-1.07365 -5.84795,0 -8.95468,3.58644 -3.10672,3.5636 -3.10672,10.32529 0,6.73885 3.10672,10.32529 3.10673,3.5636 8.95468,3.5636 2.96967,0 5.59668,-1.07365 2.64985,-1.07364 4.97989,-3.24378 l 0,4.81999 q -2.42141,1.64474 -5.1398,2.46711 -2.69554,0.82236 -5.71089,0.82236 -7.74397,0 -12.19846,-4.72862 -4.4545,-4.75146 -4.4545,-12.9523 0,-8.22368 4.4545,-12.9523 4.45449,-4.75146 12.19846,-4.75146 3.06104,0 5.75658,0.82237 2.71838,0.79952 5.09411,2.42141 z" style="font-size:46.78362656px;font-family:'League Spartan';letter-spacing:5px;text-anchor:middle;fill:#000000"/>
		<path d="m 938.51336,529.68659 0,26.52138 5.57383,0 q 7.05867,0 10.3253,-3.1981 3.28947,-3.1981 3.28947,-10.09686 0,-6.85307 -3.28947,-10.02832 -3.26663,-3.1981 -10.3253,-3.1981 l -5.57383,0 z m -4.6144,-3.79204 9.48008,0 q 9.91411,0 14.55135,4.13469 4.63725,4.11184 4.63725,12.88377 0,8.81762 -4.66009,12.9523 Q 953.24746,560 943.37904,560 l -9.48008,0 0,-34.10545 z" style="font-size:46.78362656px;font-family:'League Spartan';letter-spacing:5px;text-anchor:middle;fill:#000000"/>
		<path d="m 974.90043,525.89455 21.56432,0 0,3.88341 -16.94992,0 0,10.09686 16.24177,0 0,3.8834 -16.24177,0 0,12.35837 17.36111,0 0,3.88341 -21.97551,0 0,-34.10545 z" style="font-size:46.78362656px;font-family:'League Spartan';letter-spacing:5px;text-anchor:middle;fill:#000000"/>
		<path d="m 1018.3004,560 -13.0208,-34.10545 4.82,0 10.805,28.71437 10.8278,-28.71437 4.7972,0 -12.998,34.10545 -5.2312,0 z" style="font-size:46.78362656px;font-family:'League Spartan';letter-spacing:5px;text-anchor:middle;fill:#000000"/>
		<path d="m 1046.4867,525.89455 4.6144,0 0,34.10545 -4.6144,0 0,-34.10545 z" style="font-size:46.78362656px;font-family:'League Spartan';letter-spacing:5px;text-anchor:middle;fill:#000000"/>
		<path d="m 1060.5555,525.89455 28.8515,0 0,3.88341 -12.1071,0 0,30.22204 -4.6373,0 0,-30.22204 -12.1071,0 0,-3.88341 z" style="font-size:46.78362656px;font-family:'League Spartan';letter-spacing:5px;text-anchor:middle;fill:#000000"/>
		<path d="m 1093.3334,525.89455 28.8514,0 0,3.88341 -12.1071,0 0,30.22204 -4.6372,0 0,-30.22204 -12.1071,0 0,-3.88341 z" style="font-size:46.78362656px;font-family:'League Spartan';letter-spacing:5px;text-anchor:middle;fill:#000000"/>
		<path d="m 1131.6621,525.89455 21.5643,0 0,3.88341 -16.9499,0 0,10.09686 16.2418,0 0,3.8834 -16.2418,0 0,12.35837 17.3611,0 0,3.88341 -21.9755,0 0,-34.10545 z" style="font-size:46.78362656px;font-family:'League Spartan';letter-spacing:5px;text-anchor:middle;fill:#000000"/>
	</g>
	<g style="font-size:46.78362656px;font-family:'League Spartan';letter-spacing:5px;text-anchor:middle;fill:#000000">
		<path d="m 544.87025,585.89455 4.66008,0 7.17288,28.82859 7.15004,-28.82859 5.18549,0 7.17288,28.82859 7.15004,-28.82859 4.68293,0 -8.56634,34.10545 -5.80226,0 -7.19573,-29.60526 -7.26425,29.60526 -5.80227,0 -8.54349,-34.10545 z" style="font-size:46.78362656px;font-family:'League Spartan';letter-spacing:5px;text-anchor:middle;fill:#000000"/>
		<path d="m 594.16392,614.19773 4.82,0 0,5.80227 -4.82,0 0,-5.80227 z" style="font-size:46.78362656px;font-family:'League Spartan';letter-spacing:5px;text-anchor:middle;fill:#000000"/>
		<path d="m 653.98574,587.01389 0,4.50018 q -2.62701,-1.2564 -4.95705,-1.87317 -2.33005,-0.61678 -4.50018,-0.61678 -3.76919,0 -5.82511,1.46199 -2.03308,1.46199 -2.03308,4.15753 0,2.26151 1.34777,3.42654 1.37061,1.14217 5.16265,1.85032 l 2.78691,0.57109 q 5.16265,0.98228 7.60691,3.47223 2.4671,2.4671 2.4671,6.62463 0,4.95705 -3.33516,7.51553 -3.31231,2.55848 -9.73136,2.55848 -2.42142,0 -5.16264,-0.54824 -2.71839,-0.54825 -5.64236,-1.6219 l 0,-4.75146 q 2.80975,1.57621 5.5053,2.37573 2.69554,0.79953 5.2997,0.79953 3.95194,0 6.09924,-1.55336 2.14729,-1.55337 2.14729,-4.43166 0,-2.51279 -1.55336,-3.92909 -1.53052,-1.4163 -5.04843,-2.12445 l -2.80976,-0.54825 q -5.16265,-1.02796 -7.46985,-3.22094 -2.3072,-2.19298 -2.3072,-6.09923 0,-4.52303 3.17526,-7.1272 3.1981,-2.60416 8.79477,-2.60416 2.39858,0 4.88853,0.43402 2.48995,0.43403 5.09411,1.30209 z" style="font-size:46.78362656px;font-family:'League Spartan';letter-spacing:5px;text-anchor:middle;fill:#000000"/>
		<path d="m 668.64857,614.19773 4.82,0 0,5.80227 -4.82,0 0,-5.80227 z" style="font-size:46.78362656px;font-family:'League Spartan';letter-spacing:5px;text-anchor:middle;fill:#000000"/>
		<path d="m 712.6398,603.71254 0,12.49543 7.40132,0 q 3.7235,0 5.5053,-1.53052 1.80464,-1.55336 1.80464,-4.72862 0,-3.1981 -1.80464,-4.70577 -1.7818,-1.53052 -5.5053,-1.53052 l -7.40132,0 z m 0,-14.02595 0,10.2796 6.83023,0 q 3.38084,0 5.02558,-1.2564 1.66758,-1.27923 1.66758,-3.8834 0,-2.58132 -1.66758,-3.86056 -1.64474,-1.27924 -5.02558,-1.27924 l -6.83023,0 z m -4.6144,-3.79204 11.78728,0 q 5.27686,0 8.13231,2.19299 2.85545,2.19298 2.85545,6.23629 0,3.12957 -1.46199,4.9799 -1.46199,1.85033 -4.29459,2.3072 3.40369,0.73099 5.27686,3.06104 1.89602,2.3072 1.89602,5.77942 0,4.56871 -3.10673,7.05866 Q 726.00329,620 720.26955,620 l -12.24415,0 0,-34.10545 z" style="font-size:46.78362656px;font-family:'League Spartan';letter-spacing:5px;text-anchor:middle;fill:#000000"/>
		<path d="m 758.1186,589.02412 q -5.02558,0 -7.99525,3.74635 -2.94682,3.74634 -2.94682,10.21107 0,6.44189 2.94682,10.18823 2.96967,3.74635 7.99525,3.74635 5.02559,0 7.94956,-3.74635 2.94682,-3.74634 2.94682,-10.18823 0,-6.46473 -2.94682,-10.21107 -2.92397,-3.74635 -7.94956,-3.74635 z m 0,-3.74634 q 7.17288,0 11.46747,4.81999 4.29459,4.79715 4.29459,12.88377 0,8.06378 -4.29459,12.88377 -4.29459,4.79715 -11.46747,4.79715 -7.19572,0 -11.51316,-4.79715 -4.29459,-4.79714 -4.29459,-12.88377 0,-8.08662 4.29459,-12.88377 4.31744,-4.81999 11.51316,-4.81999 z" style="font-size:46.78362656px;font-family:'League Spartan';letter-spacing:5px;text-anchor:middle;fill:#000000"/>
		<path d="m 786.09924,585.89455 4.6144,0 0,13.98027 16.76718,0 0,-13.98027 4.6144,0 0,34.10545 -4.6144,0 0,-16.24178 -16.76718,0 0,16.24178 -4.6144,0 0,-34.10545 z" style="font-size:46.78362656px;font-family:'League Spartan';letter-spacing:5px;text-anchor:middle;fill:#000000"/>
		<path d="m 826.27831,585.89455 6.21345,0 15.12245,28.53162 0,-28.53162 4.47734,0 0,34.10545 -6.21346,0 -15.12244,-28.53162 0,28.53162 -4.47734,0 0,-34.10545 z" style="font-size:46.78362656px;font-family:'League Spartan';letter-spacing:5px;text-anchor:middle;fill:#000000"/>
	</g>
	<g style="font-style:italic;font-size:42.5079689px;font-family:'OFL Sorts Mill Goudy';text-anchor:middle;fill:#000000">
		<path d="m 546.0539,647.70391 3.81908,0 -0.93401,4.83611 -3.81908,0 0.93401,-4.83611 z m -1.74349,9.04954 3.81908,0 -4.54553,23.24655 -3.81908,0 4.54553,-23.24655 z" style="font-style:italic;font-size:42.5079689px;font-family:'OFL Sorts Mill Goudy';text-anchor:middle;fill:#000000"/>
		<path d="M 573.7422,665.96905 571.02318,680 l -3.83983,0 2.71902,-13.88566 q 0.1868,-0.97552 0.29058,-1.72273 0.10378,-0.74722 0.10378,-1.18309 0,-1.74349 -1.10006,-2.71901 -1.10006,-0.97553 -3.07187,-0.97553 -3.07186,0 -5.29274,2.05483 -2.22087,2.03407 -2.90581,5.54181 L 555.37328,680 l -3.81908,0 4.50402,-23.24655 3.81908,0 -0.76797,3.65303 q 1.5982,-2.01331 3.83983,-3.11337 2.24163,-1.10006 4.71158,-1.10006 3.07186,0 4.75309,1.66046 1.70197,1.66047 1.70197,4.67007 0,0.74721 -0.10377,1.5982 -0.083,0.85099 -0.26983,1.84727 z" style="font-style:italic;font-size:42.5079689px;font-family:'OFL Sorts Mill Goudy';text-anchor:middle;fill:#000000"/>
		<path d="m 595.01694,656.75345 -0.58117,2.96809 -7.61739,0 -2.46995,12.61955 q -0.12453,0.7057 -0.1868,1.18309 -0.0623,0.47738 -0.0623,0.74721 0,1.32837 0.78873,1.93029 0.80947,0.60192 2.57372,0.60192 l 3.86059,0 -0.64343,3.1964 -3.65303,0 q -3.40396,0 -5.08518,-1.32837 -1.66047,-1.32838 -1.66047,-4.02664 0,-0.47738 0.0623,-1.03779 0.0623,-0.58116 0.1868,-1.26611 l 2.46994,-12.61955 -3.23791,0 0.60192,-2.96809 3.17565,0 1.28686,-6.60035 3.81907,0 -1.2661,6.60035 7.63815,0 z" style="font-style:italic;font-size:42.5079689px;font-family:'OFL Sorts Mill Goudy';text-anchor:middle;fill:#000000"/>
		<path d="m 612.68016,660.28195 q -0.58116,-0.31134 -1.32837,-0.47739 -0.74721,-0.16604 -1.5982,-0.16604 -3.05111,0 -5.33425,2.32465 -2.28315,2.3039 -3.03036,6.18524 L 599.04357,680 l -3.81907,0 4.54553,-23.24655 3.81907,0 -0.72645,3.61152 q 1.51517,-2.01332 3.61151,-3.09262 2.1171,-1.0793 4.50402,-1.0793 0.62268,0 1.2246,0.083 0.60192,0.0623 1.20384,0.22831 l -0.72646,3.77757 z" style="font-style:italic;font-size:42.5079689px;font-family:'OFL Sorts Mill Goudy';text-anchor:middle;fill:#000000"/>
		<path d="m 622.04105,680.60192 q -4.0889,0 -6.47583,-2.51146 -2.36616,-2.53221 -2.36616,-6.89094 0,-2.53221 0.80948,-5.14745 0.83023,-2.63599 2.13785,-4.42099 2.05483,-2.78129 4.58704,-4.10966 2.53221,-1.32837 5.72861,-1.32837 3.96437,0 6.3928,2.46994 2.44919,2.46995 2.44919,6.45507 0,2.76053 -0.80948,5.5003 -0.80947,2.73977 -2.11709,4.54553 -2.03407,2.78128 -4.56629,4.10966 -2.53221,1.32837 -5.77012,1.32837 z m -4.87763,-9.52693 q 0,3.15489 1.30762,4.73233 1.32838,1.55669 4.00588,1.55669 3.83983,0 6.35129,-3.34169 2.53221,-3.36245 2.53221,-8.5099 0,-3.0096 -1.34913,-4.54553 -1.34913,-1.53593 -3.96436,-1.53593 -2.15861,0 -3.83984,1.01703 -1.68122,0.99629 -3.00959,3.05111 -0.97553,1.53594 -1.51518,3.50774 -0.5189,1.97181 -0.5189,4.06815 z" style="font-style:italic;font-size:42.5079689px;font-family:'OFL Sorts Mill Goudy';text-anchor:middle;fill:#000000"/>
		<path d="m 655.00133,676.51302 q -1.53593,2.01332 -3.63227,3.05111 -2.09634,1.03779 -4.64931,1.03779 -3.48698,0 -5.52105,-2.36617 -2.01332,-2.38692 -2.01332,-6.51733 0,-3.44547 1.22459,-6.55885 1.2246,-3.13413 3.54925,-5.60408 1.53594,-1.63971 3.46623,-2.4907 1.93029,-0.87174 4.04739,-0.87174 2.24163,0 3.94361,1.0793 1.72273,1.0793 2.65675,3.09262 l 2.4907,-12.66106 3.83983,0 -6.28902,32.29609 -3.83983,0 0.72645,-3.48698 z m -11.85159,-5.47954 q 0,3.00959 1.34913,4.69082 1.36989,1.68122 3.77757,1.68122 1.785,0 3.30018,-0.85099 1.53593,-0.87175 2.69826,-2.55297 1.22459,-1.74349 1.93029,-4.02663 0.7057,-2.28315 0.7057,-4.50402 0,-2.88506 -1.36989,-4.50402 -1.34913,-1.61895 -3.73605,-1.61895 -1.80576,0 -3.36244,0.85098 -1.55669,0.85099 -2.65675,2.44919 -1.20384,1.72274 -1.9303,4.00588 -0.7057,2.28315 -0.7057,4.37949 z" style="font-style:italic;font-size:42.5079689px;font-family:'OFL Sorts Mill Goudy';text-anchor:middle;fill:#000000"/>
		<path d="m 667.06048,670.78441 2.71901,-14.03096 3.83983,0 -2.71901,13.88566 q -0.20756,1.01704 -0.31134,1.7435 -0.083,0.72645 -0.083,1.20383 0,1.76425 1.0793,2.73978 1.07931,0.95476 3.05111,0.95476 3.07187,0 5.3135,-2.07558 2.24163,-2.07558 2.92657,-5.58332 l 2.55297,-12.86863 3.81907,0 -4.50401,23.24655 -3.81908,0 0.76797,-3.65303 q -1.61896,2.03407 -3.86059,3.15489 -2.22087,1.10006 -4.73233,1.10006 -3.05111,0 -4.75309,-1.66047 -1.70198,-1.68122 -1.70198,-4.67006 0,-0.62268 0.10378,-1.55669 0.10378,-0.93401 0.31134,-1.93029 z" style="font-style:italic;font-size:42.5079689px;font-family:'OFL Sorts Mill Goudy';text-anchor:middle;fill:#000000"/>
		<path d="m 713.98944,657.64596 -0.76797,3.77756 q -1.36988,-0.99628 -2.92657,-1.49442 -1.53593,-0.49814 -3.1964,-0.49814 -1.82651,0 -3.48698,0.64343 -1.63971,0.64343 -2.76053,1.82651 -1.785,1.80576 -2.76053,4.2342 -0.97552,2.42843 -0.97552,5.02291 0,3.13413 1.55669,4.67007 1.57744,1.53593 4.77384,1.53593 1.57745,0 3.34169,-0.47739 1.78501,-0.47738 3.7153,-1.43215 l -0.72646,3.77756 q -1.66046,0.68495 -3.42471,1.01704 -1.74349,0.35285 -3.59076,0.35285 -4.62855,0 -7.11926,-2.3039 -2.4907,-2.32465 -2.4907,-6.62111 0,-3.61152 1.28687,-6.64187 1.30761,-3.05111 3.86058,-5.47955 1.74349,-1.66046 4.0889,-2.51145 2.34541,-0.85099 5.1267,-0.85099 1.61895,0 3.21715,0.3736 1.5982,0.35285 3.25867,1.07931 z" style="font-style:italic;font-size:42.5079689px;font-family:'OFL Sorts Mill Goudy';text-anchor:middle;fill:#000000"/>
		<path d="m 732.58667,656.75345 -0.58117,2.96809 -7.61739,0 -2.46995,12.61955 q -0.12453,0.7057 -0.1868,1.18309 -0.0623,0.47738 -0.0623,0.74721 0,1.32837 0.78873,1.93029 0.80947,0.60192 2.57372,0.60192 l 3.86059,0 -0.64343,3.1964 -3.65303,0 q -3.40396,0 -5.08518,-1.32837 -1.66047,-1.32838 -1.66047,-4.02664 0,-0.47738 0.0623,-1.03779 0.0623,-0.58116 0.1868,-1.26611 l 2.46994,-12.61955 -3.23791,0 0.60192,-2.96809 3.17565,0 1.28686,-6.60035 3.81907,0 -1.2661,6.60035 7.63815,0 z" style="font-style:italic;font-size:42.5079689px;font-family:'OFL Sorts Mill Goudy';text-anchor:middle;fill:#000000"/>
		<path d="m 739.08325,647.70391 3.81907,0 -0.93401,4.83611 -3.81908,0 0.93402,-4.83611 z m -1.74349,9.04954 3.81907,0 L 736.6133,680 l -3.81907,0 4.54553,-23.24655 z" style="font-style:italic;font-size:42.5079689px;font-family:'OFL Sorts Mill Goudy';text-anchor:middle;fill:#000000"/>
		<path d="m 753.88217,680.60192 q -4.08891,0 -6.47583,-2.51146 -2.36616,-2.53221 -2.36616,-6.89094 0,-2.53221 0.80947,-5.14745 0.83024,-2.63599 2.13786,-4.42099 2.05482,-2.78129 4.58704,-4.10966 2.53221,-1.32837 5.72861,-1.32837 3.96437,0 6.3928,2.46994 2.44919,2.46995 2.44919,6.45507 0,2.76053 -0.80948,5.5003 -0.80948,2.73977 -2.11709,4.54553 -2.03408,2.78128 -4.56629,4.10966 -2.53221,1.32837 -5.77012,1.32837 z m -4.87763,-9.52693 q 0,3.15489 1.30762,4.73233 1.32837,1.55669 4.00588,1.55669 3.83983,0 6.35129,-3.34169 2.53221,-3.36245 2.53221,-8.5099 0,-3.0096 -1.34913,-4.54553 -1.34913,-1.53593 -3.96437,-1.53593 -2.1586,0 -3.83983,1.01703 -1.68122,0.99629 -3.0096,3.05111 -0.97552,1.53594 -1.51517,3.50774 -0.5189,1.97181 -0.5189,4.06815 z" style="font-style:italic;font-size:42.5079689px;font-family:'OFL Sorts Mill Goudy';text-anchor:middle;fill:#000000"/>
		<path d="M 792.75787,665.96905 790.03886,680 l -3.83983,0 2.71901,-13.88566 q 0.1868,-0.97552 0.29058,-1.72273 0.10378,-0.74722 0.10378,-1.18309 0,-1.74349 -1.10006,-2.71901 -1.10006,-0.97553 -3.07186,-0.97553 -3.07187,0 -5.29274,2.05483 -2.22088,2.03407 -2.90582,5.54181 L 774.38895,680 l -3.81907,0 4.50401,-23.24655 3.81908,0 -0.76797,3.65303 q 1.5982,-2.01331 3.83983,-3.11337 2.24164,-1.10006 4.71158,-1.10006 3.07187,0 4.75309,1.66046 1.70198,1.66047 1.70198,4.67007 0,0.74721 -0.10378,1.5982 -0.083,0.85099 -0.26983,1.84727 z" style="font-style:italic;font-size:42.5079689px;font-family:'OFL Sorts Mill Goudy';text-anchor:middle;fill:#000000"/>
		<path d="m 830.63729,665.803 q 0,-3.00959 -1.39064,-4.71157 -1.36989,-1.70198 -3.79832,-1.70198 -1.76425,0 -3.32093,0.87174 -1.53594,0.85099 -2.67751,2.4907 -1.20384,1.72274 -1.90954,4.00588 -0.68494,2.26239 -0.68494,4.52478 0,2.8643 1.34913,4.50401 1.36989,1.61896 3.75681,1.61896 1.80576,0 3.34169,-0.83023 1.53593,-0.85099 2.69826,-2.49071 1.18308,-1.70197 1.90954,-3.96436 0.72645,-2.26239 0.72645,-4.31722 z m -11.87234,-5.52105 q 1.4114,-1.90954 3.52849,-2.98884 2.13785,-1.10006 4.46251,-1.10006 3.57,0 5.66634,2.40767 2.1171,2.40768 2.1171,6.51734 0,3.36245 -1.24535,6.51733 -1.22459,3.15489 -3.50774,5.60408 -1.49442,1.61896 -3.44547,2.4907 -1.95105,0.87175 -4.0889,0.87175 -2.26239,0 -3.92285,-1.03779 -1.66047,-1.03779 -2.69826,-3.09262 L 814.94587,680 l -3.81907,0 6.28902,-32.29609 3.81907,0 -2.46994,12.57804 z" style="font-style:italic;font-size:42.5079689px;font-family:'OFL Sorts Mill Goudy';text-anchor:middle;fill:#000000"/>
		<path d="m 847.11741,682.15861 q -2.65675,4.4625 -4.33797,5.56256 -1.66047,1.12082 -4.25495,1.12082 l -3.0096,0 0.64343,-3.1964 2.20012,0 q 1.5982,0 2.71902,-0.87175 1.12081,-0.87174 2.51146,-3.40395 l 1.18308,-2.22088 -5.14745,-22.39556 4.04739,0 3.86059,17.80852 10.6685,-17.80852 4.00588,0 -15.0895,25.40516 z" style="font-style:italic;font-size:42.5079689px;font-family:'OFL Sorts Mill Goudy';text-anchor:middle;fill:#000000"/>
	</g>
	<g style="font-size:46.78362656px;font-family:'League Spartan';letter-spacing:5px;text-anchor:middle;fill:#000000">
		<path d="m 405.43128,705.89455 28.85143,0 0,3.88341 -12.10709,0 0,30.22204 -4.63725,0 0,-30.22204 -12.10709,0 0,-3.88341 z" style="font-size:46.78362656px;font-family:'League Spartan';letter-spacing:5px;text-anchor:middle;fill:#000000"/>
		<path d="m 443.76005,705.89455 4.6144,0 0,13.98027 16.76718,0 0,-13.98027 4.6144,0 0,34.10545 -4.6144,0 0,-16.24178 -16.76718,0 0,16.24178 -4.6144,0 0,-34.10545 z" style="font-size:46.78362656px;font-family:'League Spartan';letter-spacing:5px;text-anchor:middle;fill:#000000"/>
		<path d="m 497.78234,709.02412 q -5.02559,0 -7.99525,3.74635 -2.94682,3.74634 -2.94682,10.21107 0,6.44189 2.94682,10.18823 2.96966,3.74635 7.99525,3.74635 5.02558,0 7.94956,-3.74635 2.94682,-3.74634 2.94682,-10.18823 0,-6.46473 -2.94682,-10.21107 -2.92398,-3.74635 -7.94956,-3.74635 z m 0,-3.74634 q 7.17288,0 11.46747,4.81999 4.29459,4.79715 4.29459,12.88377 0,8.06378 -4.29459,12.88377 -4.29459,4.79715 -11.46747,4.79715 -7.19573,0 -11.51316,-4.79715 -4.29459,-4.79714 -4.29459,-12.88377 0,-8.08662 4.29459,-12.88377 4.31743,-4.81999 11.51316,-4.81999 z" style="font-size:46.78362656px;font-family:'League Spartan';letter-spacing:5px;text-anchor:middle;fill:#000000"/>
		<path d="m 525.76297,705.89455 6.87592,0 8.7034,23.20907 8.74908,-23.20907 6.87592,0 0,34.10545 -4.50019,0 0,-29.94792 -8.79477,23.39182 -4.63724,0 -8.79478,-23.39182 0,29.94792 -4.47734,0 0,-34.10545 z" style="font-size:46.78362656px;font-family:'League Spartan';letter-spacing:5px;text-anchor:middle;fill:#000000"/>
		<path d="m 582.54933,710.44042 -6.25913,16.97277 12.54112,0 -6.28199,-16.97277 z m -2.60416,-4.54587 5.23117,0 12.99799,34.10545 -4.79714,0 -3.10673,-8.74909 -15.37372,0 -3.10673,8.74909 -4.86568,0 13.02084,-34.10545 z" style="font-size:46.78362656px;font-family:'League Spartan';letter-spacing:5px;text-anchor:middle;fill:#000000"/>
		<path d="m 628.57639,707.01389 0,4.50018 q -2.62701,-1.2564 -4.95705,-1.87317 -2.33005,-0.61678 -4.50019,-0.61678 -3.76919,0 -5.82511,1.46199 -2.03307,1.46199 -2.03307,4.15753 0,2.26151 1.34777,3.42654 1.37061,1.14217 5.16264,1.85032 l 2.78692,0.57109 q 5.16264,0.98228 7.60691,3.47223 2.4671,2.4671 2.4671,6.62463 0,4.95705 -3.33516,7.51553 -3.31232,2.55848 -9.73136,2.55848 -2.42142,0 -5.16265,-0.54824 -2.71838,-0.54825 -5.64236,-1.6219 l 0,-4.75146 q 2.80976,1.57621 5.5053,2.37573 2.69554,0.79953 5.29971,0.79953 3.95194,0 6.09923,-1.55336 2.1473,-1.55337 2.1473,-4.43166 0,-2.51279 -1.55336,-3.92909 -1.53052,-1.4163 -5.04843,-2.12445 l -2.80976,-0.54825 q -5.16265,-1.02796 -7.46985,-3.22094 -2.3072,-2.19298 -2.3072,-6.09923 0,-4.52303 3.17526,-7.1272 3.1981,-2.60416 8.79477,-2.60416 2.39858,0 4.88852,0.43402 2.48995,0.43403 5.09412,1.30209 z" style="font-size:46.78362656px;font-family:'League Spartan';letter-spacing:5px;text-anchor:middle;fill:#000000"/>
		<path d="m 667.33644,709.68659 0,26.52138 5.57383,0 q 7.05866,0 10.32529,-3.1981 3.28947,-3.1981 3.28947,-10.09686 0,-6.85307 -3.28947,-10.02832 -3.26663,-3.1981 -10.32529,-3.1981 l -5.57383,0 z m -4.61441,-3.79204 9.48008,0 q 9.91411,0 14.55136,4.13469 4.63724,4.11184 4.63724,12.88377 0,8.81762 -4.66009,12.9523 Q 682.07054,740 672.20211,740 l -9.48008,0 0,-34.10545 z" style="font-size:46.78362656px;font-family:'League Spartan';letter-spacing:5px;text-anchor:middle;fill:#000000"/>
		<path d="m 703.7235,705.89455 21.56433,0 0,3.88341 -16.94993,0 0,10.09686 16.24178,0 0,3.8834 -16.24178,0 0,12.35837 17.36111,0 0,3.88341 -21.97551,0 0,-34.10545 z" style="font-size:46.78362656px;font-family:'League Spartan';letter-spacing:5px;text-anchor:middle;fill:#000000"/>
		<path d="m 772.06597,709.02412 q -5.02559,0 -7.99525,3.74635 -2.94682,3.74634 -2.94682,10.21107 0,6.44189 2.94682,10.18823 2.96966,3.74635 7.99525,3.74635 5.02558,0 7.94956,-3.74635 2.94682,-3.74634 2.94682,-10.18823 0,-6.46473 -2.94682,-10.21107 -2.92398,-3.74635 -7.94956,-3.74635 z m 6.46473,30.3591 6.07639,6.64748 -5.57383,0 -5.04843,-5.45961 q -0.75384,0.0457 -1.16502,0.0685 -0.38834,0.0228 -0.75384,0.0228 -7.19573,0 -11.51316,-4.79715 -4.29459,-4.81999 -4.29459,-12.88377 0,-8.08662 4.29459,-12.88377 4.31743,-4.81999 11.51316,-4.81999 7.17288,0 11.46747,4.81999 4.29459,4.79715 4.29459,12.88377 0,5.93933 -2.39857,10.16539 -2.37574,4.22606 -6.89876,6.23629 z" style="font-size:46.78362656px;font-family:'League Spartan';letter-spacing:5px;text-anchor:middle;fill:#000000"/>
		<path d="m 799.52119,705.89455 4.63724,0 0,20.71912 q 0,5.48246 1.98739,7.90387 1.98739,2.39858 6.44189,2.39858 4.43165,0 6.41904,-2.39858 1.98739,-2.42141 1.98739,-7.90387 l 0,-20.71912 4.63724,0 0,21.29021 q 0,6.67032 -3.31231,10.07401 -3.28948,3.40369 -9.73136,3.40369 -6.46473,0 -9.77705,-3.40369 -3.28947,-3.40369 -3.28947,-10.07401 l 0,-21.29021 z" style="font-size:46.78362656px;font-family:'League Spartan';letter-spacing:5px;text-anchor:middle;fill:#000000"/>
		<path d="m 839.31194,705.89455 4.6144,0 0,34.10545 -4.6144,0 0,-34.10545 z" style="font-size:46.78362656px;font-family:'League Spartan';letter-spacing:5px;text-anchor:middle;fill:#000000"/>
		<path d="m 858.10946,705.89455 6.21345,0 15.12244,28.53162 0,-28.53162 4.47734,0 0,34.10545 -6.21345,0 -15.12245,-28.53162 0,28.53162 -4.47733,0 0,-34.10545 z" style="font-size:46.78362656px;font-family:'League Spartan';letter-spacing:5px;text-anchor:middle;fill:#000000"/>
		<path d="m 923.6449,708.52156 0,4.86568 q -2.33004,-2.17014 -4.9799,-3.24378 -2.62701,-1.07365 -5.59667,-1.07365 -5.84795,0 -8.95468,3.58644 -3.10672,3.5636 -3.10672,10.32529 0,6.73885 3.10672,10.32529 3.10673,3.5636 8.95468,3.5636 2.96966,0 5.59667,-1.07365 2.64986,-1.07364 4.9799,-3.24378 l 0,4.81999 q -2.42142,1.64474 -5.1398,2.46711 -2.69554,0.82236 -5.71089,0.82236 -7.74397,0 -12.19847,-4.72862 -4.45449,-4.75146 -4.45449,-12.9523 0,-8.22368 4.45449,-12.9523 4.4545,-4.75146 12.19847,-4.75146 3.06103,0 5.75658,0.82237 2.71838,0.79952 5.09411,2.42141 z" style="font-size:46.78362656px;font-family:'League Spartan';letter-spacing:5px;text-anchor:middle;fill:#000000"/>
		<path d="m 935.8178,705.89455 21.56433,0 0,3.88341 -16.94993,0 0,10.09686 16.24178,0 0,3.8834 -16.24178,0 0,12.35837 17.36111,0 0,3.88341 -21.97551,0 0,-34.10545 z" style="font-size:46.78362656px;font-family:'League Spartan';letter-spacing:5px;text-anchor:middle;fill:#000000"/>
		<path d="m 965.74015,705.89455 4.95706,0 9.45723,14.02595 9.38871,-14.02595 4.95705,0 -12.0614,17.86367 0,16.24178 -4.63724,0 0,-16.24178 -12.06141,-17.86367 z" style="font-size:46.78362656px;font-family:'League Spartan';letter-spacing:5px;text-anchor:middle;fill:#000000"/>
	</g>
</svg>
